<?xml version="1.0" encoding="UTF-8" standalone="no"?>
<!DOCTYPE svg PUBLIC "-//W3C//DTD SVG 1.1//EN"
 "http://www.w3.org/Graphics/SVG/1.1/DTD/svg11.dtd">
<svg width="235pt" height="235pt" viewBox="-100 -100 200 200" style="width: 235px; height: 235px;"
     xmlns="http://www.w3.org/2000/svg" xmlns:xlink="http://www.w3.org/1999/xlink">
  <circle r="90" fill="none" stroke="#bbb" stroke-width="4"/>
  <circle r="88" fill="#333" stroke="none"/>
  <g>
    <title>Blind spot</title>
    <path d="M -26.614630510791716 84.92738923794863 A 89 89 0 0 1 -52.81428090772942 71.63554796467636" stroke="#f40" stroke-width="6" fill="none" style="cursor: help;"/>
  </g>
  <line x1="0" y1="-85" x2="0" y2="-78" stroke="#ddd" stroke-width="1" transform="rotate(0)"/>
  <line x1="0" y1="-85" x2="0" y2="-78" stroke="#ddd" stroke-width="1" transform="rotate(3)"/>
  <line x1="0" y1="-85" x2="0" y2="-78" stroke="#ddd" stroke-width="1" transform="rotate(6)"/>
  <line x1="0" y1="-85" x2="0" y2="-78" stroke="#ddd" stroke-width="1" transform="rotate(9)"/>
  <line x1="0" y1="-85" x2="0" y2="-78" stroke="#ddd" stroke-width="1" transform="rotate(12)"/>
  <line x1="0" y1="-85" x2="0" y2="-78" stroke="#ddd" stroke-width="1" transform="rotate(15)"/>
  <line x1="0" y1="-85" x2="0" y2="-78" stroke="#ddd" stroke-width="1" transform="rotate(18)"/>
  <line x1="0" y1="-85" x2="0" y2="-78" stroke="#ddd" stroke-width="1" transform="rotate(21)"/>
  <line x1="0" y1="-85" x2="0" y2="-78" stroke="#ddd" stroke-width="1" transform="rotate(24)"/>
  <line x1="0" y1="-85" x2="0" y2="-78" stroke="#ddd" stroke-width="1" transform="rotate(27)"/>
  <line x1="0" y1="-85" x2="0" y2="-78" stroke="#ddd" stroke-width="1" transform="rotate(30)"/>
  <line x1="0" y1="-85" x2="0" y2="-78" stroke="#ddd" stroke-width="1" transform="rotate(33)"/>
  <line x1="0" y1="-85" x2="0" y2="-78" stroke="#ddd" stroke-width="1" transform="rotate(36)"/>
  <line x1="0" y1="-85" x2="0" y2="-78" stroke="#ddd" stroke-width="1" transform="rotate(39)"/>
  <line x1="0" y1="-85" x2="0" y2="-78" stroke="#ddd" stroke-width="1" transform="rotate(42)"/>
  <line x1="0" y1="-85" x2="0" y2="-78" stroke="#ddd" stroke-width="1" transform="rotate(45)"/>
  <line x1="0" y1="-85" x2="0" y2="-78" stroke="#ddd" stroke-width="1" transform="rotate(48)"/>
  <line x1="0" y1="-85" x2="0" y2="-78" stroke="#ddd" stroke-width="1" transform="rotate(51)"/>
  <line x1="0" y1="-85" x2="0" y2="-78" stroke="#ddd" stroke-width="1" transform="rotate(54)"/>
  <line x1="0" y1="-85" x2="0" y2="-78" stroke="#ddd" stroke-width="1" transform="rotate(57)"/>
  <line x1="0" y1="-85" x2="0" y2="-78" stroke="#ddd" stroke-width="1" transform="rotate(60)"/>
  <line x1="0" y1="-85" x2="0" y2="-78" stroke="#ddd" stroke-width="1" transform="rotate(63)"/>
  <line x1="0" y1="-85" x2="0" y2="-78" stroke="#ddd" stroke-width="1" transform="rotate(66)"/>
  <line x1="0" y1="-85" x2="0" y2="-78" stroke="#ddd" stroke-width="1" transform="rotate(69)"/>
  <line x1="0" y1="-85" x2="0" y2="-78" stroke="#ddd" stroke-width="1" transform="rotate(72)"/>
  <line x1="0" y1="-85" x2="0" y2="-78" stroke="#ddd" stroke-width="1" transform="rotate(75)"/>
  <line x1="0" y1="-85" x2="0" y2="-78" stroke="#ddd" stroke-width="1" transform="rotate(78)"/>
  <line x1="0" y1="-85" x2="0" y2="-78" stroke="#ddd" stroke-width="1" transform="rotate(81)"/>
  <line x1="0" y1="-85" x2="0" y2="-78" stroke="#ddd" stroke-width="1" transform="rotate(84)"/>
  <line x1="0" y1="-85" x2="0" y2="-78" stroke="#ddd" stroke-width="1" transform="rotate(87)"/>
  <line x1="0" y1="-85" x2="0" y2="-78" stroke="#ddd" stroke-width="1" transform="rotate(90)"/>
  <line x1="0" y1="-85" x2="0" y2="-78" stroke="#ddd" stroke-width="1" transform="rotate(93)"/>
  <line x1="0" y1="-85" x2="0" y2="-78" stroke="#ddd" stroke-width="1" transform="rotate(96)"/>
  <line x1="0" y1="-85" x2="0" y2="-78" stroke="#ddd" stroke-width="1" transform="rotate(99)"/>
  <line x1="0" y1="-85" x2="0" y2="-78" stroke="#ddd" stroke-width="1" transform="rotate(102)"/>
  <line x1="0" y1="-85" x2="0" y2="-78" stroke="#ddd" stroke-width="1" transform="rotate(105)"/>
  <line x1="0" y1="-85" x2="0" y2="-78" stroke="#ddd" stroke-width="1" transform="rotate(108)"/>
  <line x1="0" y1="-85" x2="0" y2="-78" stroke="#ddd" stroke-width="1" transform="rotate(111)"/>
  <line x1="0" y1="-85" x2="0" y2="-78" stroke="#ddd" stroke-width="1" transform="rotate(114)"/>
  <line x1="0" y1="-85" x2="0" y2="-78" stroke="#ddd" stroke-width="1" transform="rotate(117)"/>
  <line x1="0" y1="-85" x2="0" y2="-78" stroke="#ddd" stroke-width="1" transform="rotate(120)"/>
  <line x1="0" y1="-85" x2="0" y2="-78" stroke="#ddd" stroke-width="1" transform="rotate(123)"/>
  <line x1="0" y1="-85" x2="0" y2="-78" stroke="#ddd" stroke-width="1" transform="rotate(126)"/>
  <line x1="0" y1="-85" x2="0" y2="-78" stroke="#ddd" stroke-width="1" transform="rotate(129)"/>
  <line x1="0" y1="-85" x2="0" y2="-78" stroke="#ddd" stroke-width="1" transform="rotate(132)"/>
  <line x1="0" y1="-85" x2="0" y2="-78" stroke="#ddd" stroke-width="1" transform="rotate(135)"/>
  <line x1="0" y1="-85" x2="0" y2="-78" stroke="#ddd" stroke-width="1" transform="rotate(138)"/>
  <line x1="0" y1="-85" x2="0" y2="-78" stroke="#ddd" stroke-width="1" transform="rotate(141)"/>
  <line x1="0" y1="-85" x2="0" y2="-78" stroke="#ddd" stroke-width="1" transform="rotate(144)"/>
  <line x1="0" y1="-85" x2="0" y2="-78" stroke="#ddd" stroke-width="1" transform="rotate(147)"/>
  <line x1="0" y1="-85" x2="0" y2="-78" stroke="#ddd" stroke-width="1" transform="rotate(150)"/>
  <line x1="0" y1="-85" x2="0" y2="-78" stroke="#ddd" stroke-width="1" transform="rotate(153)"/>
  <line x1="0" y1="-85" x2="0" y2="-78" stroke="#ddd" stroke-width="1" transform="rotate(156)"/>
  <line x1="0" y1="-85" x2="0" y2="-78" stroke="#ddd" stroke-width="1" transform="rotate(159)"/>
  <line x1="0" y1="-85" x2="0" y2="-78" stroke="#ddd" stroke-width="1" transform="rotate(162)"/>
  <line x1="0" y1="-85" x2="0" y2="-78" stroke="#ddd" stroke-width="1" transform="rotate(165)"/>
  <line x1="0" y1="-85" x2="0" y2="-78" stroke="#ddd" stroke-width="1" transform="rotate(168)"/>
  <line x1="0" y1="-85" x2="0" y2="-78" stroke="#ddd" stroke-width="1" transform="rotate(171)"/>
  <line x1="0" y1="-85" x2="0" y2="-78" stroke="#ddd" stroke-width="1" transform="rotate(174)"/>
  <line x1="0" y1="-85" x2="0" y2="-78" stroke="#ddd" stroke-width="1" transform="rotate(177)"/>
  <line x1="0" y1="-85" x2="0" y2="-78" stroke="#ddd" stroke-width="1" transform="rotate(180)"/>
  <line x1="0" y1="-85" x2="0" y2="-78" stroke="#ddd" stroke-width="1" transform="rotate(183)"/>
  <line x1="0" y1="-85" x2="0" y2="-78" stroke="#ddd" stroke-width="1" transform="rotate(186)"/>
  <line x1="0" y1="-85" x2="0" y2="-78" stroke="#ddd" stroke-width="1" transform="rotate(189)"/>
  <line x1="0" y1="-85" x2="0" y2="-78" stroke="#ddd" stroke-width="1" transform="rotate(192)"/>
  <line x1="0" y1="-85" x2="0" y2="-78" stroke="#ddd" stroke-width="1" transform="rotate(195)"/>
  <line x1="0" y1="-85" x2="0" y2="-78" stroke="#ddd" stroke-width="1" transform="rotate(198)"/>
  <line x1="0" y1="-85" x2="0" y2="-78" stroke="#ddd" stroke-width="1" transform="rotate(201)"/>
  <line x1="0" y1="-85" x2="0" y2="-78" stroke="#ddd" stroke-width="1" transform="rotate(204)"/>
  <line x1="0" y1="-85" x2="0" y2="-78" stroke="#ddd" stroke-width="1" transform="rotate(207)"/>
  <line x1="0" y1="-85" x2="0" y2="-78" stroke="#ddd" stroke-width="1" transform="rotate(210)"/>
  <line x1="0" y1="-85" x2="0" y2="-78" stroke="#ddd" stroke-width="1" transform="rotate(213)"/>
  <line x1="0" y1="-85" x2="0" y2="-78" stroke="#ddd" stroke-width="1" transform="rotate(216)"/>
  <line x1="0" y1="-85" x2="0" y2="-78" stroke="#ddd" stroke-width="1" transform="rotate(219)"/>
  <line x1="0" y1="-85" x2="0" y2="-78" stroke="#ddd" stroke-width="1" transform="rotate(222)"/>
  <line x1="0" y1="-85" x2="0" y2="-78" stroke="#ddd" stroke-width="1" transform="rotate(225)"/>
  <line x1="0" y1="-85" x2="0" y2="-78" stroke="#ddd" stroke-width="1" transform="rotate(228)"/>
  <line x1="0" y1="-85" x2="0" y2="-78" stroke="#ddd" stroke-width="1" transform="rotate(231)"/>
  <line x1="0" y1="-85" x2="0" y2="-78" stroke="#ddd" stroke-width="1" transform="rotate(234)"/>
  <line x1="0" y1="-85" x2="0" y2="-78" stroke="#ddd" stroke-width="1" transform="rotate(237)"/>
  <line x1="0" y1="-85" x2="0" y2="-78" stroke="#ddd" stroke-width="1" transform="rotate(240)"/>
  <line x1="0" y1="-85" x2="0" y2="-78" stroke="#ddd" stroke-width="1" transform="rotate(243)"/>
  <line x1="0" y1="-85" x2="0" y2="-78" stroke="#ddd" stroke-width="1" transform="rotate(246)"/>
  <line x1="0" y1="-85" x2="0" y2="-78" stroke="#ddd" stroke-width="1" transform="rotate(249)"/>
  <line x1="0" y1="-85" x2="0" y2="-78" stroke="#ddd" stroke-width="1" transform="rotate(252)"/>
  <line x1="0" y1="-85" x2="0" y2="-78" stroke="#ddd" stroke-width="1" transform="rotate(255)"/>
  <line x1="0" y1="-85" x2="0" y2="-78" stroke="#ddd" stroke-width="1" transform="rotate(258)"/>
  <line x1="0" y1="-85" x2="0" y2="-78" stroke="#ddd" stroke-width="1" transform="rotate(261)"/>
  <line x1="0" y1="-85" x2="0" y2="-78" stroke="#ddd" stroke-width="1" transform="rotate(264)"/>
  <line x1="0" y1="-85" x2="0" y2="-78" stroke="#ddd" stroke-width="1" transform="rotate(267)"/>
  <line x1="0" y1="-85" x2="0" y2="-78" stroke="#ddd" stroke-width="1" transform="rotate(270)"/>
  <line x1="0" y1="-85" x2="0" y2="-78" stroke="#ddd" stroke-width="1" transform="rotate(273)"/>
  <line x1="0" y1="-85" x2="0" y2="-78" stroke="#ddd" stroke-width="1" transform="rotate(276)"/>
  <line x1="0" y1="-85" x2="0" y2="-78" stroke="#ddd" stroke-width="1" transform="rotate(279)"/>
  <line x1="0" y1="-85" x2="0" y2="-78" stroke="#ddd" stroke-width="1" transform="rotate(282)"/>
  <line x1="0" y1="-85" x2="0" y2="-78" stroke="#ddd" stroke-width="1" transform="rotate(285)"/>
  <line x1="0" y1="-85" x2="0" y2="-78" stroke="#ddd" stroke-width="1" transform="rotate(288)"/>
  <line x1="0" y1="-85" x2="0" y2="-78" stroke="#ddd" stroke-width="1" transform="rotate(291)"/>
  <line x1="0" y1="-85" x2="0" y2="-78" stroke="#ddd" stroke-width="1" transform="rotate(294)"/>
  <line x1="0" y1="-85" x2="0" y2="-78" stroke="#ddd" stroke-width="1" transform="rotate(297)"/>
  <line x1="0" y1="-85" x2="0" y2="-78" stroke="#ddd" stroke-width="1" transform="rotate(300)"/>
  <line x1="0" y1="-85" x2="0" y2="-78" stroke="#ddd" stroke-width="1" transform="rotate(303)"/>
  <line x1="0" y1="-85" x2="0" y2="-78" stroke="#ddd" stroke-width="1" transform="rotate(306)"/>
  <line x1="0" y1="-85" x2="0" y2="-78" stroke="#ddd" stroke-width="1" transform="rotate(309)"/>
  <line x1="0" y1="-85" x2="0" y2="-78" stroke="#ddd" stroke-width="1" transform="rotate(312)"/>
  <line x1="0" y1="-85" x2="0" y2="-78" stroke="#ddd" stroke-width="1" transform="rotate(315)"/>
  <line x1="0" y1="-85" x2="0" y2="-78" stroke="#ddd" stroke-width="1" transform="rotate(318)"/>
  <line x1="0" y1="-85" x2="0" y2="-78" stroke="#ddd" stroke-width="1" transform="rotate(321)"/>
  <line x1="0" y1="-85" x2="0" y2="-78" stroke="#ddd" stroke-width="1" transform="rotate(324)"/>
  <line x1="0" y1="-85" x2="0" y2="-78" stroke="#ddd" stroke-width="1" transform="rotate(327)"/>
  <line x1="0" y1="-85" x2="0" y2="-78" stroke="#ddd" stroke-width="1" transform="rotate(330)"/>
  <line x1="0" y1="-85" x2="0" y2="-78" stroke="#ddd" stroke-width="1" transform="rotate(333)"/>
  <line x1="0" y1="-85" x2="0" y2="-78" stroke="#ddd" stroke-width="1" transform="rotate(336)"/>
  <line x1="0" y1="-85" x2="0" y2="-78" stroke="#ddd" stroke-width="1" transform="rotate(339)"/>
  <line x1="0" y1="-85" x2="0" y2="-78" stroke="#ddd" stroke-width="1" transform="rotate(342)"/>
  <line x1="0" y1="-85" x2="0" y2="-78" stroke="#ddd" stroke-width="1" transform="rotate(345)"/>
  <line x1="0" y1="-85" x2="0" y2="-78" stroke="#ddd" stroke-width="1" transform="rotate(348)"/>
  <line x1="0" y1="-85" x2="0" y2="-78" stroke="#ddd" stroke-width="1" transform="rotate(351)"/>
  <line x1="0" y1="-85" x2="0" y2="-78" stroke="#ddd" stroke-width="1" transform="rotate(354)"/>
  <line x1="0" y1="-85" x2="0" y2="-78" stroke="#ddd" stroke-width="1" transform="rotate(357)"/>
  <line x1="0" y1="-85" x2="0" y2="-70" stroke="#ddd" stroke-width="2" transform="rotate(0)"/>
  <line x1="0" y1="-85" x2="0" y2="-70" stroke="#ddd" stroke-width="2" transform="rotate(45)"/>
  <line x1="0" y1="-85" x2="0" y2="-70" stroke="#ddd" stroke-width="2" transform="rotate(90)"/>
  <line x1="0" y1="-85" x2="0" y2="-70" stroke="#ddd" stroke-width="2" transform="rotate(135)"/>
  <line x1="0" y1="-85" x2="0" y2="-70" stroke="#ddd" stroke-width="2" transform="rotate(180)"/>
  <line x1="0" y1="-85" x2="0" y2="-70" stroke="#ddd" stroke-width="2" transform="rotate(225)"/>
  <line x1="0" y1="-85" x2="0" y2="-70" stroke="#ddd" stroke-width="2" transform="rotate(270)"/>
  <line x1="0" y1="-85" x2="0" y2="-70" stroke="#ddd" stroke-width="2" transform="rotate(315)"/>
  <rect x="-2" y="-85" width="4" height="20" fill="red"/>
  <g transform="rotate(322)">
    <path d="M -6,-65 L 6,-65 L 6,-20 L -6,-20 L -6,-65 L 0,-75 L 6,-65" fill="#999"/>
  </g>
  <text x="0" y="-55" text-anchor="middle" dominant-baseline="middle" fill="#ddd" font-size="12">0</text>
  <text x="38.89087296526011" y="-38.890872965260115" text-anchor="middle" dominant-baseline="middle" fill="#ddd" font-size="12">45</text>
  <text x="55" y="-3.3677786976552213e-15" text-anchor="middle" dominant-baseline="middle" fill="#ddd" font-size="12">90</text>
  <text x="38.890872965260115" y="38.89087296526011" text-anchor="middle" dominant-baseline="middle" fill="#ddd" font-size="12">135</text>
  <text x="6.735557395310443e-15" y="55" text-anchor="middle" dominant-baseline="middle" fill="#ddd" font-size="12">180</text>
  <text x="-38.89087296526011" y="38.89087296526012" text-anchor="middle" dominant-baseline="middle" fill="#ddd" font-size="12">225</text>
  <text x="-55" y="1.0103336092965664e-14" text-anchor="middle" dominant-baseline="middle" fill="#ddd" font-size="12">270</text>
  <text x="-38.89087296526012" y="-38.8908729652601" text-anchor="middle" dominant-baseline="middle" fill="#ddd" font-size="12">315</text>
  <circle r="12" fill="white" stroke="#666" stroke-width="1"/>
</svg>
